# xmcd
#
# Track frame offsets: 
#        151
#        23937
#        47567
#        66125
#        105275
#        127780
#        172403
#        196563
#        228901
#        255983
#        284130
#        314442
#
# Disc length: 4503 seconds
#
# Revision: 1
# Processed by: cddbd v1.5.2PL0 Copyright (c) Steve Scherf et al.
# Submitted via: ExactAudioCopy v1.0b4
#
DISCID=9e11950c
DTITLE=Rich McDonough Band - Rich McDonough Band
DYEAR=2002
DGENRE=Blues
TTITLE0=Fannie Mae
TTITLE1=Help Me
TTITLE2=Mary Ann
TTITLE3=A Minor Thing
TTITLE4=Big Legged Woman
TTITLE5=Red House
TTITLE6=Voodoo Woman
TTITLE7=She's Nineteen Years Old
TTITLE8=I'm In A Phone Booth
TTITLE9=It Hurts Me Too
TTITLE10=Rock Me Baby
TTITLE11=Oh Lord, Things Are Getting Crazy Up Here
EXTD=YEAR: 2002
EXTT0=
EXTT1=
EXTT2=
EXTT3=
EXTT4=
EXTT5=
EXTT6=
EXTT7=
EXTT8=
EXTT9=
EXTT10=
EXTT11=
PLAYORDER=
